<svg width="400" height="400" viewBox="0 0 400 400" fill="none" xmlns="http://www.w3.org/2000/svg">
<g clip-path="url(#clip0_114_2)">
<path d="M174.415 303.125C186.503 306.768 198.144 305.244 209.849 301.468C184.536 319.66 154.211 315.843 129.875 299.099C107.844 283.943 93.2084 260.411 88.5338 234.144C86.1372 220.677 86.4841 207.48 90.054 194.296C92.0534 186.905 95.0435 180.373 99.4259 174.132C112.112 156.055 132.207 148.692 154.16 150.623C140.858 172.275 132.509 198.564 130.431 223.53C128.482 246.944 134.28 270.979 150.499 288.303C157.082 295.333 165.03 300.3 174.42 303.125H174.415Z" fill="white"/>
<path d="M144.912 313.132C150.846 314.602 155.877 316.592 161.665 317.427C206.028 324.22 236.399 290.439 251.619 252.92C256.015 242.082 258.617 231.09 259.165 219.353C269.071 211.99 281.063 202.942 293.808 202.568C300.062 202.476 306.472 204.745 309.722 210.283C312.466 214.953 312.425 220.682 311.201 225.945C308.846 236.075 304.865 245.328 300.227 254.659C285.422 284.441 260.233 311.904 228.063 322.828C200.468 332.2 169.595 328.726 144.916 313.123L144.912 313.132Z" fill="white"/>
<path d="M225.374 238.22C211.205 246.72 192.981 252.308 178.072 242.429C169.061 236.458 164.08 226.269 164.372 215.496C172.781 222.188 183.527 219.677 192.73 216.806C199.628 214.126 206.064 211.086 212.515 207.384L234.504 194.766C241.375 190.822 248.332 187.668 255.823 185.116C270.481 180.117 287.075 180.428 300.062 189.439C305.157 192.977 309.11 197.834 311.119 203.992C297.26 192.461 281.118 198.82 267.939 207.142C252.34 217.331 241.658 228.46 225.388 238.22H225.374Z" fill="white"/>
<path d="M97.39 168.796C93.8567 173.293 91.5012 177.684 88.8215 182.491C97.5544 149.532 122.817 124.602 156.995 119.75C167.23 118.294 177.177 118.038 187.398 119.59L212.25 123.365C229.515 125.99 248.83 127.967 265.442 121.48C269.619 119.85 273.266 117.499 276.051 114.144C280.324 108.99 279.607 102.444 274.882 97.5457C281.497 100.317 287.011 104.749 290.654 110.56C298.109 122.461 295.607 137.225 284.861 146.094C278.808 151.088 271.883 154.261 264.136 156.192C242.973 161.474 217.313 158.077 196.168 153.165C178.469 149.057 158.935 144.419 140.931 145.779C123.716 147.08 108.154 155.087 97.39 168.796Z" fill="white"/>
<path d="M291.517 103.722C280.917 91.6842 264.99 87.3977 249.218 87.6031C225.347 88.4385 202.951 99.1891 185.061 114.527C173.041 113.272 161.506 113.71 149.869 116.148C141.721 117.855 134.645 120.991 126.725 124.584C135.914 113.514 146.249 104.197 157.726 96.1214C182.847 78.4503 212.369 69.1971 243.242 72.7532C254.554 74.0542 265.177 76.9895 275.11 82.3488C289.874 90.3193 300.154 103.8 299.57 120.823C298.342 114.18 295.877 108.671 291.517 103.718V103.722Z" fill="white"/>
</g>
<defs>
<clipPath id="clip0_114_2">
<rect x="87" y="72" width="225" height="256" rx="100" fill="white"/>
</clipPath>
</defs>
</svg>
